<svg xmlns="http://www.w3.org/2000/svg" version="1.1" width="1280" height="1280">
	<path d="M0 0 C0.33 0.66 0.66 1.32 1 2 C1.78 1.68 2.57 1.35 3.38 1.02 C8 -0.28 12.22 -0.27 17 -0.24 C17.99 -0.24 18.98 -0.25 20 -0.25 C23.26 -0.25 26.53 -0.24 29.79 -0.23 C32.06 -0.23 34.34 -0.23 36.61 -0.23 C41.36 -0.23 46.11 -0.22 50.87 -0.21 C56.97 -0.19 63.07 -0.18 69.17 -0.19 C73.85 -0.19 78.54 -0.18 83.23 -0.17 C85.48 -0.17 87.73 -0.17 89.98 -0.17 C93.11 -0.16 96.25 -0.16 99.39 -0.15 C100.32 -0.15 101.26 -0.15 102.22 -0.15 C103.5 -0.14 103.5 -0.14 104.81 -0.13 C105.55 -0.13 106.29 -0.13 107.05 -0.13 C109 0 109 0 112 1 C113.64 1.19 115.29 1.34 116.95 1.46 C117.93 1.54 118.92 1.62 119.94 1.7 C120.99 1.78 122.04 1.86 123.12 1.94 C132.09 2.64 141.01 3.51 149.93 4.63 C152.82 5.04 152.82 5.04 155 5 C155 5.66 155 6.32 155 7 C156.22 6.96 157.43 6.92 158.69 6.88 C165.84 6.88 173.21 7.73 180 10.01 C183.12 11.04 186.06 11.55 189.31 12 C197.08 13.13 204.45 14.84 212 17 C213.46 17.32 214.92 17.63 216.38 17.94 C220.28 18.78 223.98 19.97 227.75 21.28 C229.99 22 232.2 22.52 234.5 23 C237.46 23.62 240.28 24.37 243.14 25.35 C243.92 25.61 244.7 25.88 245.51 26.15 C246.74 26.57 246.74 26.57 248 27 C249.68 27.56 251.37 28.12 253.05 28.68 C255.74 29.58 258.42 30.47 261.11 31.37 C264.94 32.65 268.77 33.93 272.61 35.17 C281.25 37.97 289.55 41.42 297.81 45.19 C301.47 46.83 305.14 47.93 309 49 C311.37 49.94 313.68 50.96 316 52 C316 52.66 316 53.32 316 54 C316.83 54.09 317.66 54.17 318.52 54.26 C322.71 55.15 325.99 56.82 329.75 58.81 C335.72 61.9 341.68 64.69 348 67 C348 67.66 348 68.32 348 69 C348.87 69.27 349.73 69.54 350.62 69.81 C353.92 70.97 356.91 72.38 360 74 C360 74.66 360 75.32 360 76 C360.72 76.1 361.44 76.21 362.19 76.31 C365.27 77.07 367.32 78.32 370 80 C371.65 80.7 373.32 81.37 375 82 C375 82.66 375 83.32 375 84 C375.87 84.27 376.73 84.54 377.62 84.81 C380.92 85.97 383.91 87.38 387 89 C387 89.66 387 90.32 387 91 C389.47 91.5 389.47 91.5 392 92 C392 92.66 392 93.32 392 94 C392.87 94.19 392.87 94.19 393.75 94.38 C396.02 95.01 397.93 95.89 400 97 C400 97.66 400 98.32 400 99 C400.95 99.31 401.9 99.62 402.88 99.94 C406 101 406 101 408 102 C408 102.66 408 103.32 408 104 C408.58 104.29 409.15 104.58 409.75 104.88 C410.49 105.25 411.24 105.62 412 106 C412.66 106.31 413.32 106.62 414 106.94 C416.19 108.1 418.02 109.5 420 111 C420.83 111.5 421.65 111.99 422.5 112.5 C428.57 116.14 428.57 116.14 430 119 C430.99 119.31 431.98 119.62 433 119.94 C433.99 120.29 434.98 120.64 436 121 C436.33 121.99 436.66 122.98 437 124 C437.66 124 438.32 124 439 124 C439 124.66 439 125.32 439 126 C439.72 126.25 440.44 126.5 441.19 126.75 C444.86 128.38 448.16 130.32 450 134 C450.6 134.3 451.2 134.6 451.81 134.91 C455.03 136.51 457.37 138.92 460 141.34 C461.94 142.95 463.73 143.96 466 145 C469.49 147.21 471.81 150.07 474.34 153.28 C475.97 155.12 475.97 155.12 478.32 156.35 C481.72 158.44 484.24 161.02 487 163.88 C487.51 164.39 488.02 164.91 488.54 165.44 C489.55 166.47 490.55 167.5 491.56 168.53 C492.91 169.91 494.28 171.28 495.65 172.65 C497.08 174.08 498.51 175.53 499.91 176.98 C500.48 177.57 501.04 178.15 501.62 178.75 C502.19 179.34 502.76 179.94 503.35 180.55 C505.05 182.23 505.05 182.23 508 183 C508.7 184.32 509.36 185.65 510 187 C511.62 188.89 511.62 188.89 513.52 190.71 C514.21 191.4 514.91 192.09 515.62 192.79 C516.34 193.5 517.07 194.21 517.81 194.94 C518.52 195.64 519.24 196.34 519.97 197.07 C521.35 198.43 522.74 199.8 524.13 201.16 C525.72 202.72 527.3 204.29 528.87 205.87 C530.33 207.33 531.81 208.77 533.31 210.19 C535 212 535 212 535 214 C535.66 214.33 536.32 214.66 537 215 C539.63 216.81 539.63 216.81 542 219 C542 220.32 542 221.64 542 223 C542.86 223.38 542.86 223.38 543.74 223.76 C546.29 225.16 548.06 226.76 550.12 228.81 C550.81 229.48 551.49 230.15 552.2 230.83 C554.13 233.15 554.93 235.2 556 238 C557.4 240 557.4 240 559 241.75 C559.52 242.34 560.03 242.94 560.56 243.55 C561.96 245.11 561.96 245.11 564 246 C564.39 246.68 564.78 247.36 565.19 248.06 C567.26 251.42 569.71 254.14 572.38 257.04 C573.97 258.96 574.95 260.75 576 263 C578.4 266.6 580.94 269.94 584 273 C584.31 273.82 584.62 274.65 584.94 275.5 C585.86 278.3 585.86 278.3 589 280 C589.68 281.66 590.35 283.33 591 285 C591.49 285.5 591.99 285.99 592.5 286.5 C594 288 594 288 595 290.56 C595.86 293.31 595.86 293.31 599 295 C599.68 296.66 600.35 298.33 601 300 C601.49 300.5 601.99 300.99 602.5 301.5 C604.46 303.46 605.07 305.4 606 308 C607.42 311.86 607.42 311.86 610 315 C616.29 324.12 616.29 324.12 618 328.62 C618.82 331.01 618.82 331.01 620.46 332.4 C622.18 334.19 622.81 335.61 623.62 337.94 C623.98 338.94 623.98 338.94 624.35 339.96 C625 342 625 342 625.4 344.13 C625.91 346.39 625.91 346.39 629 348 C631 353.05 631 353.05 631 356 C631.99 356.66 632.98 357.32 634 358 C635.04 360.27 635.04 360.27 636 363 C639.48 371.64 643.26 380.02 647.75 388.19 C649.2 391.46 649.65 394.45 650 398 C650.66 398 651.32 398 652 398 C652.19 398.77 652.39 399.54 652.59 400.34 C652.85 401.34 653.11 402.34 653.38 403.38 C653.63 404.37 653.89 405.37 654.15 406.4 C654.82 409.13 654.82 409.13 657 411 C657.7 412.88 658.34 414.78 658.94 416.69 C660.04 420.12 661.13 423.47 662.62 426.75 C663.94 429.85 664.72 432.76 665.46 436.03 C666.03 438.31 666.03 438.31 667.56 441.56 C669.04 445.11 669.49 448.22 670 452 C670.66 452.99 671.32 453.98 672 455 C672 457 672 459 672 461 C672.66 461.66 673.32 462.32 674 463 C675.48 467.53 676.49 472.13 677.5 476.79 C678.21 479.9 679.1 482.94 680 486 C680.19 486.76 680.37 487.53 680.56 488.31 C680.96 490.1 680.96 490.1 682 492 C681.98 493.15 681.96 494.31 681.94 495.5 C681.6 499.06 681.6 499.06 684 501 C684.46 503.36 684.82 505.74 685.12 508.12 C685.29 509.41 685.46 510.69 685.63 512.01 C685.75 513 685.88 513.98 686 515 C686.33 515 686.66 515 687 515 C686.97 515.94 686.97 515.94 686.93 516.9 C686.91 517.72 686.89 518.53 686.88 519.38 C686.84 520.59 686.84 520.59 686.8 521.84 C686.79 524.21 686.79 524.21 689 526 C689.99 528.91 690.08 531.51 690 534.56 C689.92 537.5 690.05 539.15 691 542 C692.34 546.49 692.37 551.06 692.62 555.71 C692.87 558.99 692.87 558.99 694.04 561.92 C695.4 566.27 695.06 570.42 694.83 574.9 C694.73 578.72 695 580.99 696.49 584.62 C698.38 589.48 698.42 593.98 698.39 599.14 C698.39 600.13 698.4 601.11 698.4 602.12 C698.42 605.35 698.41 608.58 698.4 611.81 C698.4 614.07 698.4 616.33 698.41 618.58 C698.41 623.3 698.41 628.02 698.39 632.74 C698.37 638.78 698.38 644.82 698.4 650.86 C698.41 655.52 698.41 660.17 698.4 664.83 C698.4 667.06 698.4 669.28 698.41 671.51 C698.42 674.62 698.4 677.74 698.39 680.86 C698.39 681.77 698.4 682.68 698.41 683.62 C698.35 689.43 697.27 693.65 695 699 C694.53 701.76 694.53 701.76 694.52 704.34 C694.49 705.26 694.46 706.17 694.43 707.12 C694.41 708.05 694.39 708.98 694.38 709.94 C694.32 711.82 694.27 713.71 694.21 715.59 C694.19 716.41 694.18 717.24 694.16 718.09 C694 720 694 720 693 721 C692.84 723.14 692.72 725.29 692.62 727.44 C692.29 733.65 691.53 739.73 690.5 745.88 C690.37 746.67 690.24 747.46 690.1 748.27 C689.13 753.87 689.13 753.87 688 755 C687.72 757.51 687.55 760.03 687.38 762.55 C687 765 687 765 685 768 C684.54 770.74 684.54 770.74 684.38 773.69 C684.26 775.18 684.26 775.18 684.15 776.7 C684.1 777.46 684.05 778.22 684 779 C683.01 779.33 682.02 779.66 681 780 C681.01 780.68 681.02 781.35 681.04 782.05 C681.05 783.38 681.05 783.38 681.06 784.75 C681.07 785.63 681.09 786.51 681.1 787.42 C681.01 789.85 680.66 791.68 680 794 C679.57 795.79 679.57 795.79 679.13 797.61 C677.45 804.57 675.76 811.37 673 818 C672.34 818 671.68 818 671 818 C670.67 819.32 670.34 820.64 670 822 C670.66 822 671.32 822 672 822 C672 822.66 672 823.32 672 824 C671.34 824 670.68 824 670 824 C670.33 824.99 670.66 825.98 671 827 C670.58 828.8 670.58 828.8 669.81 830.88 C668.48 834.6 667.27 838.34 666.12 842.12 C659.77 862.81 659.77 862.81 656.75 868.62 C655.23 871.56 654.41 873.76 654 877 C653.34 877 652.68 877 652 877 C652 878.65 652 880.3 652 882 C651.34 882 650.68 882 650 882 C649.9 883.03 649.79 884.06 649.69 885.12 C649 889.02 647.9 891.56 646 895 C645.23 896.64 645.23 896.64 644.44 898.31 C643 901 643 901 641 902 C641.06 903.14 641.06 903.14 641.12 904.31 C641 907 641 907 639 910 C639 910.66 639 911.32 639 912 C638.34 912 637.68 912 637 912 C636.81 913.14 636.81 913.14 636.62 914.31 C636 917 636 917 634 920 C634 920.66 634 921.32 634 922 C633.34 922 632.68 922 632 922 C631.81 923.14 631.81 923.14 631.62 924.31 C631 927 631 927 629 930 C629 930.66 629 931.32 629 932 C628.34 932 627.68 932 627 932 C626.81 933.08 626.81 933.08 626.62 934.19 C626.01 936.96 625.12 939.4 624 942 C623.34 942 622.68 942 622 942 C621.71 942.95 621.42 943.9 621.12 944.88 C620 948 620 948 618 950 C617.3 951.65 616.64 953.32 616 955 C615.35 956.34 614.69 957.68 614 959 C613.34 959 612.68 959 612 959 C611.9 959.91 611.79 960.82 611.69 961.75 C610.99 965.04 610.36 966.64 608 969 C607.01 969 606.02 969 605 969 C605.33 969.99 605.66 970.98 606 972 C604.47 975.68 602.85 978.27 600 981 C598.97 982.65 597.97 984.32 597 986 C593.77 991.36 590.29 996.51 586.65 1001.61 C585.54 1003.22 584.48 1004.86 583.48 1006.54 C582.09 1008.85 580.62 1010.98 579 1013.12 C578.51 1013.79 578.01 1014.45 577.5 1015.13 C576 1017 576 1017 574.4 1018.56 C572.77 1020.08 572.77 1020.08 571.62 1022.88 C569.85 1026.29 567.74 1028.32 565 1031 C564.54 1031.78 564.07 1032.56 563.6 1033.37 C561.43 1036.94 558.68 1039.77 555.84 1042.82 C553.97 1044.86 553.97 1044.86 553 1047.01 C551.72 1049.56 550.02 1051.24 548 1053.25 C546.95 1054.31 546.95 1054.31 545.88 1055.39 C544 1057 544 1057 542 1057 C541.9 1057.78 541.79 1058.57 541.69 1059.38 C541 1062 541 1062 538 1064 C536.65 1065.58 535.31 1067.17 533.97 1068.76 C529.56 1073.77 524.75 1078.42 520.03 1083.14 C518.87 1084.31 517.7 1085.47 516.54 1086.64 C514.1 1089.08 511.67 1091.52 509.23 1093.95 C506.12 1097.06 503.02 1100.18 499.91 1103.3 C497.51 1105.71 495.11 1108.12 492.7 1110.53 C491.55 1111.68 490.41 1112.82 489.27 1113.98 C487.67 1115.59 486.06 1117.19 484.45 1118.79 C483.54 1119.7 482.63 1120.61 481.69 1121.55 C478.95 1124.04 476.11 1126 473 1128 C471.63 1129.31 470.29 1130.67 469 1132.06 C465.86 1135.3 463.06 1137.01 459 1139 C457.17 1140.7 455.46 1142.48 453.73 1144.29 C451.4 1146.59 448.76 1148.25 446 1150 C445.44 1150.58 444.89 1151.15 444.31 1151.75 C443 1153 443 1153 440 1153 C437.71 1155.12 435.61 1157.34 433.5 1159.62 C431.51 1161.45 429.34 1162.66 427 1164 C424.33 1165.54 421.91 1167.07 419.5 1169 C416.35 1171.52 412.99 1173.43 409.5 1175.44 C406.93 1176.98 406.93 1176.98 404.5 1179 C402.09 1180.93 399.67 1182.46 397 1184 C396.17 1184.54 395.35 1185.07 394.5 1185.62 C391.95 1187.03 389.86 1187.59 387 1188 C387 1188.66 387 1189.32 387 1190 C382.62 1193 382.62 1193 380 1193 C379.34 1193.99 378.68 1194.98 378 1196 C376.35 1196.71 374.68 1197.37 373 1198 C369.77 1199.72 366.64 1201.62 363.5 1203.5 C362.67 1203.99 361.85 1204.49 361 1205 C360.43 1205.35 359.86 1205.71 359.28 1206.07 C355.82 1208.17 354.14 1209 350 1209 C350 1209.66 350 1210.32 350 1211 C344.25 1213 344.25 1213 342 1213 C341.34 1213.99 340.68 1214.98 340 1216 C336.27 1218.19 334.39 1219 330 1219 C330 1219.66 330 1220.32 330 1221 C327.36 1222.41 324.93 1223.37 322 1224 C322 1223.34 322 1222.68 322 1222 C321.01 1222 320.02 1222 319 1222 C318.94 1222.62 318.88 1223.24 318.81 1223.88 C318 1226 318 1226 315.75 1227.06 C314.84 1227.37 313.93 1227.68 313 1228 C312.24 1228.52 311.47 1229.03 310.69 1229.56 C307.08 1231.49 304.06 1231.66 300 1232 C300 1232.66 300 1233.32 300 1234 C298.35 1234 296.7 1234 295 1234 C295 1234.66 295 1235.32 295 1236 C294.01 1236.12 294.01 1236.12 293 1236.25 C290.36 1236.91 288.56 1237.68 286.19 1238.94 C280.73 1241.77 275.22 1243.39 269 1243 C268.67 1243.99 268.34 1244.98 268 1246 C263.62 1247.69 258.67 1248.3 254 1248 C253.67 1248.99 253.34 1249.98 253 1251 C247.39 1251.66 241.78 1252.32 236 1253 C235.67 1253.99 235.34 1254.98 235 1256 C229.93 1258.04 224.4 1258.23 219 1258 C218.67 1258.99 218.34 1259.98 218 1261 C215.52 1261.91 215.52 1261.91 212.38 1262.62 C211.29 1262.87 210.2 1263.12 209.08 1263.38 C205.74 1264.05 202.38 1264.52 199 1265 C198.24 1265.33 197.47 1265.66 196.69 1266 C189.6 1268.64 181.47 1268.14 174 1268 C174 1268.66 174 1269.32 174 1270 C169.51 1271.84 165.88 1272.12 161.12 1272 C158.65 1272 156.39 1272.38 154 1273 C154 1273.33 154 1273.66 154 1274 C152.99 1274.05 151.97 1274.1 150.93 1274.15 C149.58 1274.22 148.23 1274.3 146.88 1274.38 C146.21 1274.41 145.54 1274.44 144.86 1274.47 C141.74 1274.65 139.03 1274.99 136.07 1276.01 C131.33 1277.54 126.58 1277.43 121.63 1277.57 C120.87 1277.6 120.1 1277.63 119.31 1277.66 C118.63 1277.67 117.94 1277.69 117.24 1277.71 C114.9 1277.92 114.9 1277.92 112.48 1279 C107.93 1280.31 103.76 1280.28 99.05 1280.26 C98.06 1280.26 97.08 1280.27 96.06 1280.27 C92.81 1280.28 89.56 1280.27 86.31 1280.27 C84.05 1280.27 81.78 1280.27 79.52 1280.27 C74.78 1280.27 70.04 1280.27 65.3 1280.26 C59.22 1280.25 53.15 1280.26 47.08 1280.27 C42.41 1280.28 37.73 1280.27 33.06 1280.27 C30.82 1280.27 28.58 1280.27 26.34 1280.27 C23.21 1280.28 20.08 1280.27 16.95 1280.26 C16.03 1280.26 15.1 1280.27 14.15 1280.27 C9.34 1280.24 5.53 1279.8 1 1278 C-1.21 1277.68 -1.21 1277.68 -3.31 1277.66 C-4.08 1277.63 -4.84 1277.6 -5.63 1277.57 C-6.41 1277.54 -7.2 1277.52 -8 1277.5 C-13.46 1277.35 -17.8 1276.79 -23 1275 C-25.65 1274.72 -28.22 1274.5 -30.88 1274.38 C-31.56 1274.34 -32.25 1274.3 -32.96 1274.26 C-34.64 1274.16 -36.32 1274.08 -38 1274 C-38 1273.34 -38 1272.68 -38 1272 C-38.53 1272.18 -39.06 1272.37 -39.61 1272.55 C-42.68 1273.13 -45.12 1272.67 -48.19 1272.12 C-49.25 1271.94 -50.32 1271.76 -51.42 1271.57 C-54 1271 -54 1271 -55 1270 C-56.98 1269.79 -58.96 1269.63 -60.94 1269.5 C-66.78 1269.11 -66.78 1269.11 -69 1268 C-72.08 1267.48 -75.16 1267.04 -78.25 1266.6 C-81 1266 -81 1266 -83 1264 C-84.57 1264.03 -86.15 1264.07 -87.72 1264.12 C-92.02 1263.89 -99.86 1263.14 -103 1260 C-104.35 1259.68 -105.7 1259.39 -107.06 1259.12 C-118.26 1256.74 -118.26 1256.74 -121 1254 C-123 1253.96 -125 1253.96 -127 1254 C-127 1253.67 -127 1253.34 -127 1253 C-127.7 1252.89 -128.4 1252.78 -129.12 1252.67 C-130.03 1252.51 -130.94 1252.35 -131.88 1252.19 C-132.78 1252.04 -133.68 1251.89 -134.62 1251.73 C-137 1251 -137 1251 -139 1248 C-140.96 1247.71 -142.92 1247.42 -144.89 1247.24 C-147.79 1246.91 -150.32 1246.11 -153 1245 C-153.33 1244.34 -153.66 1243.68 -154 1243 C-155.87 1242.8 -157.74 1242.59 -159.62 1242.41 C-163.17 1241.8 -166.29 1240.39 -169.59 1238.99 C-172.68 1237.72 -175.77 1236.84 -179 1236 C-179 1235.34 -179 1234.68 -179 1234 C-180.65 1234 -182.3 1234 -184 1234 C-184 1233.34 -184 1232.68 -184 1232 C-185.03 1231.9 -186.06 1231.79 -187.12 1231.69 C-191.89 1230.84 -195.32 1229.06 -199.38 1226.5 C-202.19 1224.89 -204.98 1223.82 -208.04 1222.75 C-210 1222 -210 1222 -211.93 1221.03 C-215.09 1219.46 -218.43 1218.37 -221.76 1217.2 C-224.37 1215.8 -224.98 1214.73 -226 1212 C-226.99 1212.33 -227.98 1212.66 -229 1213 C-232.12 1211.75 -232.12 1211.75 -235 1210 C-235.33 1209.01 -235.66 1208.02 -236 1207 C-236.99 1207.33 -237.98 1207.66 -239 1208 C-244.7 1205.61 -244.7 1205.61 -246 1203 C-246.6 1202.86 -247.2 1202.71 -247.81 1202.56 C-250.44 1201.89 -251.88 1200.66 -254 1199 C-256.42 1197.66 -258.86 1196.66 -261.44 1195.62 C-264.84 1194.07 -267.16 1192.39 -270 1190 C-272.52 1188.37 -274.82 1187.07 -277.62 1186 C-280.1 1184.96 -281.13 1183.87 -283 1182 C-283.82 1181.67 -284.65 1181.34 -285.5 1181 C-288.1 1179.96 -289.09 1178.98 -291 1177 C-292.66 1175.99 -294.33 1174.99 -296 1174 C-296.66 1173.34 -297.32 1172.68 -298 1172 C-299.21 1171.54 -299.21 1171.54 -300.44 1171.06 C-303.06 1169.98 -304.08 1169 -306 1167 C-307.65 1165.97 -309.32 1164.98 -311 1164 C-317.21 1160 -323.13 1155.68 -328.69 1150.81 C-330.61 1149.13 -332.27 1147.85 -334.5 1146.56 C-336.92 1145.05 -338.48 1143.55 -340.44 1141.5 C-343.38 1138.45 -346.16 1136.84 -350 1135 C-351.71 1133.37 -353.38 1131.71 -355 1130 C-355.99 1129.34 -356.98 1128.68 -358 1128 C-359.01 1127.01 -360.01 1126.01 -361 1125 C-362.21 1123.94 -363.42 1122.89 -364.64 1121.85 C-369.2 1117.89 -373.45 1113.67 -377.69 1109.38 C-378.79 1108.27 -378.79 1108.27 -379.91 1107.14 C-381.27 1105.77 -382.64 1104.39 -384 1103.02 C-388.28 1098.71 -392.59 1094.43 -396.9 1090.15 C-400.08 1087 -403.25 1083.84 -406.43 1080.68 C-408.1 1079.02 -409.77 1077.37 -411.44 1075.71 C-413.87 1073.3 -416.29 1070.89 -418.71 1068.48 C-419.46 1067.75 -420.2 1067.02 -420.96 1066.27 C-424.94 1062.29 -428.51 1058.24 -431.79 1053.67 C-433.65 1051.1 -435.77 1048.79 -437.9 1046.45 C-439 1045 -439 1045 -439 1043 C-439.66 1043 -440.32 1043 -441 1043 C-441.99 1041.51 -441.99 1041.51 -443 1040 C-443.66 1039.34 -444.32 1038.68 -445 1038 C-445.94 1036.62 -446.85 1035.22 -447.75 1033.81 C-450.15 1030.16 -452.73 1026.89 -455.62 1023.62 C-458.22 1020.57 -460.37 1017.29 -462.12 1013.69 C-462.89 1011.81 -462.89 1011.81 -465 1011 C-466 1009.59 -466.95 1008.15 -467.88 1006.69 C-469.56 1004.08 -471.05 1001.95 -473.25 999.75 C-476.03 996.97 -476.78 993.66 -478 990 C-478.66 989.67 -479.32 989.34 -480 989 C-483 984.5 -483 984.5 -483 982 C-483.66 982 -484.32 982 -485 982 C-487.04 979.09 -488 977.6 -488 974 C-488.66 973.67 -489.32 973.34 -490 973 C-490.62 970.94 -490.62 970.94 -491 969 C-491.66 969 -492.32 969 -493 969 C-493.29 968.2 -493.58 967.39 -493.88 966.56 C-494.73 963.87 -494.73 963.87 -497 963 C-497.33 961 -497.67 959 -498 957 C-498.66 956.67 -499.32 956.34 -500 956 C-500.69 954.68 -501.35 953.34 -502 952 C-503.05 950.51 -503.05 950.51 -504.12 949 C-506 946 -506 946 -506 942 C-506.66 942 -507.32 942 -508 942 C-509.01 940.07 -510.01 938.13 -511 936.19 C-511.56 935.11 -512.11 934.03 -512.69 932.92 C-514 930 -514 930 -514 927 C-514.99 926.67 -515.98 926.34 -517 926 C-517.71 923.69 -518.01 921.42 -518.38 919.03 C-518.58 918.36 -518.79 917.69 -519 917 C-519.99 916.67 -520.98 916.34 -522 916 C-522.84 914.14 -522.84 914.14 -523.5 911.81 C-524.39 908.86 -525.29 906.41 -526.69 903.62 C-528 901 -528 901 -528 898 C-528.66 898 -529.32 898 -530 898 C-532.03 893.51 -533.74 888.96 -535.38 884.31 C-537 879.71 -538.72 875.18 -540.62 870.69 C-546 857.99 -546 857.99 -546 852 C-546.66 851.67 -547.32 851.34 -548 851 C-548 849.68 -548 848.36 -548 847 C-548.66 846.67 -549.32 846.34 -550 846 C-550.73 844.09 -550.73 844.09 -551.4 841.59 C-551.65 840.68 -551.9 839.77 -552.16 838.84 C-552.42 837.88 -552.67 836.92 -552.94 835.94 C-555.02 828.19 -555.02 828.19 -557.62 820.61 C-558.7 817.79 -559.5 815.26 -560.06 812.31 C-560.52 809.95 -561.03 807.92 -561.96 805.69 C-563.24 802.38 -563.85 799.11 -564.5 795.62 C-565.2 791.86 -565.94 788.2 -567 784.52 C-568.27 780.05 -569.06 775.54 -569.86 770.96 C-570.65 766.54 -571.75 762.31 -573 758 C-574.49 750.94 -575.24 744.21 -575 737 C-575.66 736.67 -576.32 736.34 -577 736 C-578.01 729.65 -578.12 723.42 -578 717 C-578.66 716.67 -579.32 716.34 -580 716 C-580.03 715.35 -580.05 714.7 -580.08 714.03 C-580.19 711.08 -580.31 708.13 -580.44 705.19 C-580.48 704.16 -580.52 703.14 -580.56 702.08 C-580.6 701.1 -580.64 700.12 -580.68 699.11 C-580.72 698.2 -580.76 697.29 -580.79 696.36 C-580.92 693.85 -580.92 693.85 -582 691 C-582.09 689.61 -582.13 688.21 -582.13 686.81 C-582.13 685.96 -582.13 685.11 -582.14 684.23 C-582.13 683.3 -582.13 682.37 -582.13 681.41 C-582.13 680.42 -582.13 679.44 -582.13 678.43 C-582.14 675.16 -582.14 671.9 -582.13 668.64 C-582.13 666.37 -582.13 664.11 -582.14 661.84 C-582.14 657.09 -582.14 652.33 -582.13 647.58 C-582.12 641.49 -582.13 635.4 -582.13 629.32 C-582.14 624.63 -582.14 619.95 -582.13 615.27 C-582.13 613.03 -582.13 610.78 -582.14 608.54 C-582.14 605.4 -582.13 602.25 -582.13 599.11 C-582.13 598.19 -582.13 597.26 -582.14 596.31 C-582.12 591.43 -581.81 586.82 -581 582 C-580.88 580.63 -580.79 579.26 -580.72 577.89 C-580.66 576.85 -580.66 576.85 -580.61 575.79 C-580.53 574.37 -580.46 572.95 -580.39 571.52 C-580.1 566.21 -580.1 566.21 -579 564 C-579.03 562.61 -579.03 562.61 -579.06 561.19 C-579.17 554.78 -578.05 548.11 -576.46 541.91 C-575.91 539.63 -575.7 537.4 -575.5 535.06 C-575.2 531.64 -574.72 528.36 -574 525 C-573.82 524.12 -573.65 523.23 -573.46 522.32 C-572.98 519.88 -572.49 517.44 -572 515 C-571.34 515 -570.68 515 -570 515 C-570.5 513.51 -570.5 513.51 -571 512 C-570.64 509.36 -570.21 506.8 -569.69 504.19 C-569.56 503.49 -569.43 502.79 -569.29 502.07 C-568.49 497.91 -567.37 494.01 -566 490 C-565.62 487.67 -565.28 485.34 -565 483 C-564.34 483 -563.68 483 -563 483 C-563.33 482.01 -563.66 481.02 -564 480 C-563.51 477.77 -563.51 477.77 -562.69 475.25 C-562.4 474.36 -562.12 473.47 -561.83 472.55 C-561.55 471.71 -561.28 470.87 -561 470 C-559.61 465.34 -558.46 460.68 -557.46 455.92 C-557 454 -557 454 -556 452 C-555.36 449.8 -554.74 447.59 -554.12 445.38 C-552.64 440.13 -551 435.07 -549 430 C-546.54 423.37 -544.19 416.72 -542 410 C-541.34 410 -540.68 410 -540 410 C-540.04 409.05 -540.08 408.1 -540.12 407.12 C-540 404 -540 404 -538 402 C-537.28 400.08 -536.62 398.14 -536 396.19 C-534.79 392.39 -533.52 388.68 -532 385 C-531.34 385 -530.68 385 -530 385 C-529.88 384.3 -529.75 383.6 -529.62 382.88 C-527.97 375.25 -527.97 375.25 -525.5 372.06 C-523.77 369.94 -523.77 369.94 -523.06 366.62 C-521.94 362.78 -520.26 360.27 -518 357 C-517.23 354.77 -517.23 354.77 -517 353 C-516.34 353 -515.68 353 -515 353 C-514.88 352.28 -514.77 351.55 -514.65 350.81 C-513.98 347.91 -512.99 345.69 -511.62 343.06 C-510.95 341.76 -510.95 341.76 -510.27 340.43 C-509.85 339.63 -509.43 338.83 -509 338 C-508.46 336.89 -507.93 335.77 -507.38 334.62 C-506.1 332.19 -504.65 330.18 -503 328 C-502.67 327.01 -502.34 326.02 -502 325 C-501.34 325 -500.68 325 -500 325 C-499.83 324.41 -499.66 323.82 -499.48 323.21 C-497.98 318.31 -496.43 314.89 -493 311 C-492.67 310.01 -492.34 309.02 -492 308 C-491.34 308 -490.68 308 -490 308 C-489.69 307.05 -489.38 306.1 -489.06 305.12 C-488 302 -488 302 -487 300 C-486.34 300 -485.68 300 -485 300 C-484.79 299.2 -484.59 298.39 -484.38 297.56 C-482.59 292.95 -480.14 288.84 -477 285 C-476.34 285 -475.68 285 -475 285 C-474.92 284.28 -474.83 283.56 -474.75 282.81 C-473.84 279.4 -472.27 277.67 -470 275 C-469.46 274.07 -468.93 273.14 -468.38 272.19 C-467.92 271.47 -467.47 270.74 -467 270 C-466.34 270 -465.68 270 -465 270 C-464.67 268.35 -464.34 266.7 -464 265 C-463.34 265 -462.68 265 -462 265 C-461.71 264.38 -461.42 263.76 -461.12 263.12 C-460 261 -460 261 -458 259 C-457.71 258.22 -457.42 257.43 -457.12 256.62 C-455.86 253.67 -454.45 252.06 -452 250 C-451.34 250 -450.68 250 -450 250 C-449.81 249.15 -449.63 248.31 -449.44 247.44 C-447.81 243.54 -445.88 241.66 -442.75 238.91 C-440.83 237.01 -440.83 237.01 -439.69 234.2 C-437.55 230.14 -434.75 227.49 -431.44 224.38 C-430.26 223.26 -429.1 222.15 -427.93 221.02 C-427.16 220.3 -427.16 220.3 -426.37 219.55 C-424.93 218.08 -424.93 218.08 -424.25 216.26 C-422.52 213.13 -420.08 210.83 -417.56 208.35 C-417 207.79 -416.45 207.24 -415.88 206.67 C-414.05 204.84 -412.21 203.03 -410.37 201.21 C-409.1 199.94 -407.83 198.68 -406.55 197.41 C-403.21 194.07 -399.85 190.75 -396.5 187.42 C-391.12 182.09 -385.76 176.75 -380.39 171.41 C-378.51 169.54 -376.63 167.68 -374.75 165.81 C-373.61 164.68 -372.46 163.54 -371.31 162.4 C-370.79 161.88 -370.26 161.36 -369.72 160.82 C-367.02 158.17 -367.02 158.17 -365 155 C-363.35 155 -361.7 155 -360 155 C-359.75 154.42 -359.49 153.85 -359.23 153.25 C-355.8 146.98 -350.28 143.07 -344 140 C-342.78 138.82 -341.6 137.61 -340.44 136.38 C-337.65 133.43 -336.06 132.58 -332 132 C-330.82 130.13 -330.82 130.13 -330 128 C-328.27 125.86 -327.18 125.06 -324.56 124.12 C-321.79 123.16 -321.79 123.16 -320.06 120.44 C-318 118 -318 118 -314.75 117.19 C-313.84 117.13 -312.94 117.06 -312 117 C-312 116.34 -312 115.68 -312 115 C-310.14 113.56 -310.14 113.56 -307.69 112 C-306.89 111.48 -306.09 110.97 -305.26 110.44 C-304.52 109.96 -303.77 109.49 -303 109 C-301.51 108.01 -301.51 108.01 -300 107 C-299.01 107 -298.02 107 -297 107 C-297 106.34 -297 105.68 -297 105 C-292.49 101.32 -287.66 98.45 -282 97 C-282 96.34 -282 95.68 -282 95 C-276.25 92 -276.25 92 -274 92 C-274 91.34 -274 90.68 -274 90 C-269.64 86.95 -262.42 82 -257 82 C-257 81.34 -257 80.68 -257 80 C-256.05 79.55 -255.1 79.09 -254.12 78.62 C-251 77.2 -251 77.2 -249 75 C-246.99 74.16 -244.94 73.48 -242.88 72.78 C-240.8 72.06 -240.8 72.06 -239 70 C-237.34 69.33 -235.67 68.66 -234 68 C-233.24 67.53 -232.47 67.05 -231.69 66.56 C-228.79 64.88 -225.93 63.82 -222.77 62.75 C-220.79 62.04 -220.79 62.04 -219 60 C-217.1 59.27 -215.2 58.54 -213.29 57.86 C-210.91 56.97 -208.62 55.94 -206.31 54.88 C-203.22 53.47 -200.39 52.44 -197 52 C-197 51.34 -197 50.68 -197 50 C-195.81 49.62 -195.81 49.62 -194.59 49.23 C-185.69 46.81 -185.69 46.81 -178 42 C-176 41.96 -174 41.96 -172 42 C-172 41.34 -172 40.68 -172 40 C-170.35 40 -168.7 40 -167 40 C-167 39.34 -167 38.68 -167 38 C-166.18 37.76 -165.36 37.52 -164.51 37.27 C-159.3 35.7 -154.18 34.15 -149.19 32 C-142.39 29.16 -135.16 27.67 -128 26 C-128 25.67 -128 25.34 -128 25 C-127.43 24.88 -126.86 24.76 -126.28 24.63 C-125.51 24.47 -124.73 24.3 -123.94 24.12 C-122.81 23.88 -122.81 23.88 -121.65 23.63 C-117.22 22.58 -112.87 21.26 -108.5 19.96 C-107.35 19.63 -106.19 19.29 -105 18.94 C-103.85 18.6 -102.69 18.25 -101.5 17.9 C-98 17 -94.57 16.51 -91 16 C-89.65 15.57 -88.31 15.09 -87 14.56 C-81.67 12.68 -76.25 12.14 -70.65 11.53 C-66.95 10.99 -63.59 10.03 -60 9 C-56.95 8.41 -53.88 7.95 -50.81 7.5 C-49.12 7.24 -47.42 6.98 -45.73 6.72 C-44.92 6.6 -44.1 6.48 -43.26 6.35 C-40.38 5.9 -37.5 5.43 -34.62 4.94 C-33.69 4.78 -32.76 4.63 -31.8 4.47 C-29.85 4.14 -27.9 3.8 -25.95 3.43 C-17.23 1.91 -8.81 1.8 0 2 C0 1.34 0 0.68 0 0 Z M602 304 C603 306 603 306 603 306 Z M635 364 C636 366 636 366 636 366 Z M665 439 C666 443 666 443 666 443 Z M675 476 C676 478 676 478 676 478 Z M680 492 C680 493.98 680 495.96 680 498 C680.33 498 680.66 498 681 498 C681 496.02 681 494.04 681 492 C680.67 492 680.34 492 680 492 Z M690 720 C690 724.62 690 729.24 690 734 C690.33 734 690.66 734 691 734 C691 729.38 691 724.76 691 720 C690.67 720 690.34 720 690 720 Z M685 755 C685 757.31 685 759.62 685 762 C685.33 762 685.66 762 686 762 C686 759.69 686 757.38 686 755 C685.67 755 685.34 755 685 755 Z M675 800 C676 804 676 804 676 804 Z M660 850 C661 852 661 852 661 852 Z M476 1122 C476.33 1122.66 476.66 1123.32 477 1124 C477.33 1123.34 477.66 1122.68 478 1122 C477.34 1122 476.68 1122 476 1122 Z M-90 1262 C-90 1262.33 -90 1262.66 -90 1263 C-88.02 1263 -86.04 1263 -84 1263 C-84 1262.67 -84 1262.34 -84 1262 C-85.98 1262 -87.96 1262 -90 1262 Z M198 1262 C198 1262.33 198 1262.66 198 1263 C200.64 1263 203.28 1263 206 1263 C206 1262.67 206 1262.34 206 1262 C203.36 1262 200.72 1262 198 1262 Z M-33 1272 C-33 1272.33 -33 1272.66 -33 1273 C-30.03 1273 -27.06 1273 -24 1273 C-24 1272.67 -24 1272.34 -24 1272 C-26.97 1272 -29.94 1272 -33 1272 Z " fill="#6BA444" transform="translate(582,0)"/>
	<path d="M0 0 C3.56 1.21 5.76 2.82 8.67 5.2 C9.81 6.12 10.96 7.03 12.11 7.94 C13.03 8.68 13.03 8.68 13.98 9.44 C17.65 12.32 21.41 15.07 25.17 17.82 C25.98 18.42 26.79 19.02 27.62 19.63 C32.28 23.05 36.96 26.44 41.66 29.81 C50.04 35.82 58.26 42.01 66.44 48.28 C71.81 52.38 77.22 56.4 82.75 60.29 C90.09 65.48 97.3 70.85 104.52 76.2 C108.51 79.14 112.49 82.08 116.48 85.01 C118.06 86.18 119.65 87.35 121.23 88.51 C122.01 89.09 122.8 89.67 123.61 90.26 C280.36 205.76 280.36 205.76 475.11 349.26 C476.69 350.43 478.27 351.59 479.85 352.76 C483.83 355.69 487.8 358.61 491.77 361.55 C492.56 362.13 493.35 362.71 494.16 363.31 C495.74 364.48 497.31 365.65 498.89 366.81 C502.93 369.8 506.99 372.73 511.11 375.61 C511.93 376.19 512.76 376.77 513.61 377.37 C515.19 378.48 516.78 379.58 518.37 380.66 C524.85 385.22 524.85 385.22 525.98 390.01 C525.49 390.37 525 390.73 524.49 391.11 C515.96 397.37 507.44 403.65 498.98 410.01 C487.84 418.39 476.64 426.68 465.31 434.81 C457.91 440.11 450.63 445.53 443.42 451.07 C436.5 456.38 429.51 461.53 422.36 466.51 C415.12 471.57 408.08 476.9 401.03 482.21 C390.88 489.86 380.64 497.39 370.32 504.8 C362.92 510.11 355.64 515.53 348.42 521.07 C341.5 526.38 334.51 531.53 327.36 536.51 C320.12 541.57 313.08 546.9 306.03 552.21 C295.88 559.86 285.64 567.39 275.32 574.8 C267.92 580.11 260.64 585.53 253.42 591.07 C246.5 596.38 239.51 601.53 232.36 606.51 C225.12 611.57 218.08 616.9 211.03 622.21 C200.88 629.86 190.64 637.39 180.32 644.8 C172.92 650.11 165.64 655.53 158.42 661.07 C151.5 666.38 144.51 671.53 137.36 676.51 C130.12 681.57 123.08 686.9 116.03 692.21 C105.88 699.86 95.64 707.39 85.32 714.8 C77.92 720.11 70.64 725.53 63.42 731.07 C56.51 736.38 49.52 741.52 42.37 746.5 C36.77 750.41 31.31 754.47 25.86 758.57 C25.02 759.2 24.18 759.83 23.31 760.48 C19.37 763.44 15.45 766.42 11.55 769.45 C10.22 770.47 8.88 771.49 7.54 772.51 C6.95 772.99 6.35 773.46 5.74 773.95 C3.27 775.82 1.6 777 -1.54 777.06 C-4.79 775.68 -7.52 773.81 -10.33 771.7 C-11.24 771.03 -11.24 771.03 -12.17 770.35 C-14.13 768.92 -16.08 767.47 -18.02 766.01 C-18.65 765.54 -19.29 765.06 -19.94 764.57 C-22.56 762.61 -25.17 760.65 -27.78 758.68 C-32.73 754.95 -37.74 751.31 -42.77 747.7 C-50.1 742.43 -57.34 737.04 -64.55 731.6 C-70.08 727.45 -75.65 723.36 -81.27 719.32 C-87.54 714.82 -93.75 710.24 -99.92 705.6 C-110.42 697.69 -121.01 689.88 -131.69 682.22 C-140.07 676.21 -148.3 670.02 -156.48 663.75 C-161.85 659.64 -167.26 655.63 -172.79 651.73 C-180.13 646.54 -187.34 641.17 -194.56 635.83 C-198.55 632.88 -202.53 629.95 -206.52 627.01 C-208.1 625.85 -209.69 624.68 -211.27 623.51 C-212.05 622.93 -212.84 622.36 -213.64 621.76 C-292.02 564.01 -370.39 506.26 -486.77 420.51 C-487.55 419.93 -488.34 419.36 -489.15 418.76 C-490.72 417.6 -492.3 416.44 -493.87 415.28 C-497.95 412.27 -502.04 409.27 -506.12 406.27 C-507.38 405.34 -507.38 405.34 -508.67 404.39 C-510.26 403.22 -511.85 402.06 -513.44 400.89 C-515.64 399.27 -517.83 397.65 -520.02 396.01 C-520.86 395.39 -521.7 394.76 -522.57 394.12 C-523.4 393.49 -524.22 392.87 -525.07 392.23 C-526.21 391.38 -526.21 391.38 -527.36 390.51 C-527.91 390.01 -528.46 389.52 -529.02 389.01 C-529.02 388.35 -529.02 387.69 -529.02 387.01 C-527.11 385.51 -525.21 384.13 -523.21 382.76 C-521.91 381.86 -520.62 380.95 -519.32 380.04 C-518.63 379.55 -517.93 379.07 -517.21 378.56 C-513.38 375.85 -509.61 373.05 -505.83 370.26 C-505.03 369.67 -504.23 369.08 -503.41 368.47 C-501.77 367.26 -500.13 366.05 -498.49 364.83 C-496.04 363.03 -493.59 361.23 -491.14 359.43 C-483.72 353.97 -476.31 348.49 -468.96 342.95 C-462.61 338.17 -456.18 333.5 -449.73 328.87 C-444.78 325.31 -439.88 321.68 -435.02 318.01 C-429.49 313.83 -423.9 309.74 -418.27 305.7 C-411.82 301.06 -405.43 296.35 -399.08 291.57 C-385.78 281.56 -372.38 271.69 -358.86 261.98 C-352.33 257.27 -345.9 252.44 -339.48 247.6 C-334.04 243.5 -328.55 239.48 -323.02 235.51 C-316.65 230.94 -310.35 226.29 -304.08 221.57 C-290.78 211.56 -277.38 201.69 -263.86 191.98 C-257.33 187.27 -250.9 182.44 -244.48 177.6 C-239.04 173.5 -233.55 169.48 -228.02 165.51 C-221.65 160.94 -215.35 156.29 -209.08 151.57 C-195.78 141.56 -182.38 131.69 -168.86 121.98 C-162.33 117.27 -155.9 112.44 -149.48 107.6 C-144.04 103.5 -138.55 99.48 -133.02 95.51 C-126.65 90.94 -120.35 86.29 -114.08 81.57 C-100.78 71.56 -87.38 61.69 -73.86 51.98 C-67.33 47.27 -60.9 42.44 -54.48 37.6 C-48.32 32.96 -42.1 28.44 -35.83 23.95 C-29.06 19.08 -22.39 14.07 -15.74 9.04 C-14.19 7.86 -12.64 6.7 -11.08 5.54 C-9.81 4.6 -8.56 3.64 -7.32 2.66 C-4.74 0.7 -3.27 0.01 0 0 Z " fill="#FBD945" transform="translate(641.01953125,250.98828125)"/>
	<path d="M0 0 C1.65 0.94 3.29 1.88 4.94 2.81 C20.75 12.35 35.96 24.21 49.52 36.73 C51.52 38.56 53.55 40.33 55.61 42.09 C60.43 46.31 64.98 50.79 69.51 55.32 C70.93 56.74 72.35 58.15 73.78 59.55 C79.23 64.99 84.28 70.58 89.07 76.61 C90.84 78.8 92.7 80.83 94.62 82.88 C97 86 97 86 96.94 88.33 C95.71 91.84 93.81 94.01 91.38 96.81 C90.54 97.79 89.7 98.76 88.84 99.77 C88.16 100.54 88.16 100.54 87.47 101.33 C86.44 102.5 85.41 103.68 84.4 104.86 C67.69 124.21 48.84 139.81 27 153 C26.11 153.54 26.11 153.54 25.2 154.09 C1.84 167.93 -24.47 175.29 -51 180 C-52.22 180.23 -53.44 180.46 -54.7 180.69 C-109.03 189.23 -168.04 173.52 -212.5 141.88 C-222.94 134.27 -232.63 125.87 -242 117 C-242.93 116.12 -243.86 115.25 -244.82 114.35 C-251.5 107.87 -257.21 100.94 -262.81 93.54 C-263.8 92.26 -264.82 91.01 -265.86 89.78 C-276.27 77.31 -283.58 61.82 -290 47 C-290.3 46.31 -290.61 45.61 -290.92 44.9 C-299.18 25.78 -306.05 2.94 -306 -18 C-306.33 -18.66 -306.66 -19.32 -307 -20 C-307.08 -21.38 -307.11 -22.75 -307.1 -24.13 C-307.09 -24.94 -307.09 -25.74 -307.09 -26.57 C-307.08 -27.42 -307.07 -28.26 -307.06 -29.12 C-307.06 -29.97 -307.05 -30.82 -307.05 -31.7 C-307.04 -33.8 -307.02 -35.9 -307 -38 C-206.61 -67.87 -95.61 -58.25 0 0 Z " fill="#0051B3" transform="translate(724,680)"/>
	<path d="M0 0 C0.9 -0 1.81 -0 2.74 -0 C4.65 -0 6.56 -0 8.47 0 C11.37 0.01 14.27 0 17.17 -0 C19.03 -0 20.89 -0 22.75 0 C23.61 -0 24.47 -0 25.35 -0.01 C44.76 0.07 64.21 5 82.51 11.13 C83.3 11.39 84.09 11.66 84.9 11.93 C124.75 25.3 161.24 51.39 186.51 85.13 C187.68 86.67 187.68 86.67 188.88 88.25 C210.9 117.74 225.88 152.77 231.51 189.13 C231.71 190.41 231.92 191.69 232.13 193.01 C235.17 214.1 236.54 241.53 230.51 262.13 C229.85 262.46 229.19 262.79 228.51 263.13 C222.69 258.92 217.55 254.31 212.52 249.18 C208.68 245.28 204.69 241.67 200.51 238.13 C199.59 237.34 198.67 236.54 197.72 235.72 C188.94 228.14 179.79 221.09 170.51 214.13 C169.52 213.39 168.53 212.65 167.51 211.88 C143.07 193.84 116.33 178.31 88.51 166.13 C87.53 165.7 86.56 165.27 85.56 164.83 C38.76 144.26 -10.57 131.77 -61.49 127.13 C-62.36 127.05 -63.23 126.97 -64.13 126.88 C-71.17 126.25 -78.14 125.96 -85.2 125.93 C-86.28 125.92 -87.36 125.92 -88.47 125.91 C-91.94 125.89 -95.4 125.88 -98.87 125.88 C-100.05 125.88 -101.24 125.88 -102.46 125.88 C-128.18 125.9 -152.96 128.25 -178.29 132.59 C-180.21 132.92 -180.21 132.92 -182.16 133.24 C-183.85 133.54 -183.85 133.54 -185.58 133.83 C-188.27 134.11 -189.96 134.01 -192.49 133.13 C-187.19 117.75 -178.84 103.61 -168.83 90.87 C-167.56 89.22 -166.34 87.55 -165.12 85.87 C-159.23 77.82 -152.4 70.75 -145.37 63.7 C-144.44 62.76 -143.51 61.82 -142.55 60.86 C-120.14 38.68 -89.08 19.14 -58.49 11.13 C-57.03 10.65 -55.57 10.15 -54.12 9.63 C-42.13 5.64 -30.15 3.23 -17.68 1.46 C-16.05 1.22 -14.43 0.92 -12.82 0.6 C-8.53 -0 -4.33 -0.01 0 0 Z " fill="#0051B3" transform="translate(628.4921875,416.8671875)"/>
	<path d="M0 0 C1.85 0.26 1.85 0.26 3.74 0.52 C31.78 4.55 59.11 11.16 86 20 C86.85 20.27 87.69 20.54 88.56 20.83 C124.79 32.55 160.72 49.25 192 71 C192.87 71.56 193.74 72.12 194.64 72.7 C212.62 84.27 229.56 97.9 245.21 112.43 C247.53 114.56 249.87 116.64 252.25 118.69 C255.01 121.07 257.58 123.57 260.12 126.19 C264.03 130.15 267.65 133.22 273 135 C272.02 138.67 271.01 142.34 270 146 C269.79 146.77 269.58 147.53 269.37 148.32 C261.98 175.29 251.19 199.48 236 223 C235.67 222.34 235.34 221.68 235 221 C234.34 221 233.68 221 233 221 C231.71 219.55 230.5 218.04 229.31 216.5 C214.89 198.52 198.17 181.18 180 167 C178.14 165.42 176.29 163.84 174.44 162.25 C164.43 153.9 153.81 145.88 142.48 139.42 C140.07 138.04 137.71 136.57 135.34 135.1 C117.5 124.09 98.55 114.56 79 107 C78.25 106.71 77.51 106.41 76.74 106.11 C-1.35 75.42 -85.17 74.43 -165.37 96.34 C-168 97 -168 97 -170 97 C-171.31 65.91 -163.68 33.23 -151 5 C-150.41 4.95 -149.83 4.9 -149.23 4.85 C-143.58 4.33 -138.01 3.56 -132.41 2.64 C-126.62 1.69 -120.81 0.84 -115 0 C-113.92 -0.16 -112.84 -0.32 -111.72 -0.48 C-75.24 -5.57 -36.47 -5.1 0 0 Z " fill="#EBEEED" transform="translate(587,545)"/>
	<path d="M0 0 C0.66 0.66 1.32 1.32 2 2 C1.46 2.53 0.92 3.07 0.37 3.62 C-2.11 6.08 -4.59 8.54 -7.06 11 C-8.33 12.26 -8.33 12.26 -9.63 13.54 C-14.09 17.98 -18.36 22.49 -22.46 27.26 C-24.62 29.7 -26.99 31.84 -29.44 34 C-34.68 38.7 -39.71 43.59 -44.69 48.56 C-45.4 49.27 -46.1 49.97 -46.83 50.69 C-47.49 51.35 -48.15 52.01 -48.82 52.69 C-49.71 53.58 -49.71 53.58 -50.61 54.48 C-52.1 55.97 -52.1 55.97 -53 58 C-53.66 57.67 -54.32 57.34 -55 57 C-53.42 53.15 -50.82 50.55 -47.91 47.68 C-47.39 47.16 -46.87 46.65 -46.34 46.11 C-44.64 44.41 -42.92 42.71 -41.21 41.02 C-40.03 39.83 -38.84 38.65 -37.65 37.47 C-34.54 34.36 -31.42 31.26 -28.29 28.16 C-25.11 24.99 -21.92 21.82 -18.74 18.64 C-12.5 12.42 -6.25 6.21 0 0 Z " fill="#99B545" transform="translate(216,157)"/>
	<path d="M0 0 C0.66 0.66 1.32 1.32 2 2 C1.51 2.48 1.01 2.96 0.5 3.46 C-0.46 4.41 -0.46 4.41 -1.44 5.38 C-2.08 6 -2.71 6.63 -3.37 7.27 C-5.08 8.92 -5.08 8.92 -6 11 C-6.66 11 -7.32 11 -8 11 C-8.33 11.99 -8.66 12.98 -9 14 C-9.81 12.33 -9.81 12.33 -10 10 C-7.91 7.42 -7.91 7.42 -5.06 4.75 C-4.13 3.86 -3.19 2.97 -2.22 2.05 C-1.49 1.37 -0.76 0.7 0 0 Z " fill="#A5B945" transform="translate(153,222)"/>
	<path d="M0 0 C0 3.96 -1.35 4.83 -4 7.69 C-4.74 8.5 -5.49 9.3 -6.25 10.14 C-6.83 10.75 -7.41 11.37 -8 12 C-8.66 11.34 -9.32 10.68 -10 10 C-6.7 6.7 -3.4 3.4 0 0 Z " fill="#758531" transform="translate(232,143)"/>
	<path d="M0 0 C0.33 0 0.66 0 1 0 C1 4.29 1 8.58 1 13 C0.67 13 0.34 13 0 13 C0 8.71 0 4.42 0 0 Z " fill="#000100" transform="translate(1277,699)"/>
	<path d="M0 0 C2.97 0 5.94 0 9 0 C9 0.33 9 0.66 9 1 C6.03 1 3.06 1 0 1 C0 0.67 0 0.34 0 0 Z " fill="#FCD945" transform="translate(756,1268)"/>
	<path d="M0 0 C0.33 0 0.66 0 1 0 C1 2.97 1 5.94 1 9 C0.67 9 0.34 9 0 9 C0 6.03 0 3.06 0 0 Z " fill="#000100" transform="translate(1277,572)"/>
	<path d="M0 0 C2.31 0 4.62 0 7 0 C7 0.33 7 0.66 7 1 C4.69 1 2.38 1 0 1 C0 0.67 0 0.34 0 0 Z " fill="#FCD945" transform="translate(801,1258)"/>
	<path d="M0 0 C1.98 0 3.96 0 6 0 C6 0.33 6 0.66 6 1 C4.02 1 2.04 1 0 1 C0 0.67 0 0.34 0 0 Z " fill="#000100" transform="translate(721,1275)"/>
	<path d="M0 0 C1.98 0 3.96 0 6 0 C6 0.33 6 0.66 6 1 C4.02 1 2.04 1 0 1 C0 0.67 0 0.34 0 0 Z " fill="#000100" transform="translate(553,1275)"/>
	<path d="M0 0 C1.98 0 3.96 0 6 0 C6 0.33 6 0.66 6 1 C4.02 1 2.04 1 0 1 C0 0.67 0 0.34 0 0 Z " fill="#FCD945" transform="translate(818,1253)"/>
	<path d="M0 0 C0.33 0 0.66 0 1 0 C1 1.98 1 3.96 1 6 C0.67 6 0.34 6 0 6 C0 4.02 0 2.04 0 0 Z " fill="#000100" transform="translate(1275,721)"/>
	<path d="M0 0 C0.33 0 0.66 0 1 0 C1 1.98 1 3.96 1 6 C0.67 6 0.34 6 0 6 C0 4.02 0 2.04 0 0 Z " fill="#000100" transform="translate(1275,553)"/>
	<path d="M0 0 C1.65 0 3.3 0 5 0 C5 0.33 5 0.66 5 1 C3.35 1 1.7 1 0 1 C0 0.67 0 0.34 0 0 Z " fill="#000100" transform="translate(522,1270)"/>
	<path d="M0 0 C0.33 0 0.66 0 1 0 C1 1.65 1 3.3 1 5 C0.67 5 0.34 5 0 5 C0 3.35 0 1.7 0 0 Z " fill="#000100" transform="translate(1267,768)"/>
	<path d="M0 0 C4 1 4 1 4 1 Z " fill="#FCD945" transform="translate(439,1248)"/>
	<path d="M0 0 C4 1 4 1 4 1 Z " fill="#FCD945" transform="translate(424,1243)"/>
	<path d="M0 0 C1 4 1 4 1 4 Z " fill="#FCD945" transform="translate(1263,780)"/>
	<path d="M0 0 C3 1 3 1 3 1 Z " fill="#000100" transform="translate(756,1270)"/>
	<path d="M0 0 C3 1 3 1 3 1 Z " fill="#000100" transform="translate(466,1257)"/>
	<path d="M0 0 C3 1 3 1 3 1 Z " fill="#000100" transform="translate(818,1255)"/>
	<path d="M0 0 C3 1 3 1 3 1 Z " fill="#CBC745" transform="translate(836,1248)"/>
	<path d="M0 0 C3 1 3 1 3 1 Z " fill="#CBC745" transform="translate(851,1243)"/>
	<path d="" fill="#000100" transform="translate(0,0)"/>
	<path d="" fill="#FCD945" transform="translate(0,0)"/>
	<path d="" fill="#000100" transform="translate(0,0)"/>
	<path d="" fill="#000100" transform="translate(0,0)"/>
	<path d="" fill="#000100" transform="translate(0,0)"/>
	<path d="" fill="#000100" transform="translate(0,0)"/>
	<path d="" fill="#000100" transform="translate(0,0)"/>
	<path d="M0 0 C2 1 2 1 2 1 Z " fill="#000100" transform="translate(801,1260)"/>
	<path d="M0 0 C2 1 2 1 2 1 Z " fill="#000100" transform="translate(477,1260)"/>
	<path d="M0 0 C2 1 2 1 2 1 Z " fill="#000100" transform="translate(812,1257)"/>
	<path d="M0 0 C2 1 2 1 2 1 Z " fill="#000100" transform="translate(460,1255)"/>
	<path d="M0 0 C2 1 2 1 2 1 Z " fill="#000100" transform="translate(872,1237)"/>
	<path d="M0 0 C2 1 2 1 2 1 Z " fill="#000100" transform="translate(406,1237)"/>
	<path d="M0 0 C2 1 2 1 2 1 Z " fill="#000100" transform="translate(896,1227)"/>
	<path d="M0 0 C2 1 2 1 2 1 Z " fill="#ECEFEE" transform="translate(368,1220)"/>
	<path d="M0 0 C2 1 2 1 2 1 Z " fill="#FCD945" transform="translate(924,1213)"/>
	<path d="M0 0 C2 1 2 1 2 1 Z " fill="#F4E499" transform="translate(334,1203)"/>
	<path d="M0 0 C2 1 2 1 2 1 Z " fill="#FCD945" transform="translate(969,1188)"/>
	<path d="M0 0 C2 1 2 1 2 1 Z " fill="#000100" transform="translate(282,1172)"/>
	<path d="" fill="#B3BF45" transform="translate(0,0)"/>
	<path d="" fill="#000100" transform="translate(0,0)"/>
	<path d="" fill="#000100" transform="translate(0,0)"/>
	<path d="" fill="#000100" transform="translate(0,0)"/>
	<path d="" fill="#000100" transform="translate(0,0)"/>
	<path d="" fill="#000100" transform="translate(0,0)"/>
	<path d="" fill="#000100" transform="translate(0,0)"/>
	<path d="" fill="#000100" transform="translate(0,0)"/>
	<path d="" fill="#000100" transform="translate(0,0)"/>
	<path d="" fill="#000100" transform="translate(0,0)"/>
	<path d="" fill="#000100" transform="translate(0,0)"/>
	<path d="" fill="#000100" transform="translate(0,0)"/>
	<path d="" fill="#000100" transform="translate(0,0)"/>
	<path d="" fill="#FCD945" transform="translate(0,0)"/>
	<path d="" fill="#FCD945" transform="translate(0,0)"/>
	<path d="" fill="#000100" transform="translate(0,0)"/>
	<path d="" fill="#000100" transform="translate(0,0)"/>
	<path d="" fill="#000100" transform="translate(0,0)"/>
	<path d="" fill="#000100" transform="translate(0,0)"/>
	<path d="" fill="#000100" transform="translate(0,0)"/>
	<path d="" fill="#000100" transform="translate(0,0)"/>
	<path d="" fill="#000100" transform="translate(0,0)"/>
	<path d="" fill="#000100" transform="translate(0,0)"/>
	<path d="" fill="#000100" transform="translate(0,0)"/>
	<path d="" fill="#000100" transform="translate(0,0)"/>
	<path d="" fill="#000100" transform="translate(0,0)"/>
	<path d="" fill="#000100" transform="translate(0,0)"/>
	<path d="" fill="#000100" transform="translate(0,0)"/>
	<path d="" fill="#FCD945" transform="translate(0,0)"/>
	<path d="" fill="#000100" transform="translate(0,0)"/>
	<path d="" fill="#000100" transform="translate(0,0)"/>
	<path d="" fill="#000100" transform="translate(0,0)"/>
	<path d="" fill="#FCD945" transform="translate(0,0)"/>
	<path d="" fill="#000100" transform="translate(0,0)"/>
	<path d="" fill="#000100" transform="translate(0,0)"/>
	<path d="" fill="#000100" transform="translate(0,0)"/>
	<path d="" fill="#000100" transform="translate(0,0)"/>
	<path d="" fill="#000100" transform="translate(0,0)"/>
	<path d="" fill="#000100" transform="translate(0,0)"/>
	<path d="" fill="#FCD945" transform="translate(0,0)"/>
	<path d="" fill="#FCD945" transform="translate(0,0)"/>
	<path d="" fill="#000100" transform="translate(0,0)"/>
	<path d="" fill="#000100" transform="translate(0,0)"/>
	<path d="" fill="#FCD945" transform="translate(0,0)"/>
	<path d="" fill="#000100" transform="translate(0,0)"/>
	<path d="" fill="#000100" transform="translate(0,0)"/>
	<path d="" fill="#000100" transform="translate(0,0)"/>
	<path d="" fill="#000100" transform="translate(0,0)"/>
	<path d="" fill="#ECEFEE" transform="translate(0,0)"/>
	<path d="" fill="#000100" transform="translate(0,0)"/>
	<path d="" fill="#000100" transform="translate(0,0)"/>
	<path d="" fill="#000100" transform="translate(0,0)"/>
	<path d="" fill="#000100" transform="translate(0,0)"/>
	<path d="" fill="#000100" transform="translate(0,0)"/>
	<path d="" fill="#000100" transform="translate(0,0)"/>
	<path d="" fill="#000100" transform="translate(0,0)"/>
	<path d="" fill="#000100" transform="translate(0,0)"/>
	<path d="" fill="#000100" transform="translate(0,0)"/>
	<path d="" fill="#000100" transform="translate(0,0)"/>
	<path d="" fill="#ECEFEE" transform="translate(0,0)"/>
	<path d="" fill="#000100" transform="translate(0,0)"/>
	<path d="" fill="#FCD945" transform="translate(0,0)"/>
	<path d="" fill="#000100" transform="translate(0,0)"/>
	<path d="" fill="#000100" transform="translate(0,0)"/>
	<path d="" fill="#000100" transform="translate(0,0)"/>
	<path d="" fill="#FCD945" transform="translate(0,0)"/>
	<path d="" fill="#000100" transform="translate(0,0)"/>
	<path d="" fill="#000100" transform="translate(0,0)"/>
	<path d="" fill="#FCD945" transform="translate(0,0)"/>
	<path d="" fill="#000100" transform="translate(0,0)"/>
	<path d="" fill="#000100" transform="translate(0,0)"/>
	<path d="" fill="#000100" transform="translate(0,0)"/>
	<path d="" fill="#000100" transform="translate(0,0)"/>
	<path d="" fill="#000100" transform="translate(0,0)"/>
	<path d="" fill="#000100" transform="translate(0,0)"/>
	<path d="" fill="#ECEFEE" transform="translate(0,0)"/>
	<path d="" fill="#000100" transform="translate(0,0)"/>
	<path d="" fill="#000100" transform="translate(0,0)"/>
	<path d="" fill="#000100" transform="translate(0,0)"/>
	<path d="" fill="#000100" transform="translate(0,0)"/>
	<path d="" fill="#000100" transform="translate(0,0)"/>
	<path d="" fill="#000100" transform="translate(0,0)"/>
	<path d="" fill="#000100" transform="translate(0,0)"/>
	<path d="" fill="#000100" transform="translate(0,0)"/>
	<path d="" fill="#000100" transform="translate(0,0)"/>
	<path d="" fill="#000100" transform="translate(0,0)"/>
	<path d="" fill="#000100" transform="translate(0,0)"/>
	<path d="" fill="#000100" transform="translate(0,0)"/>
	<path d="" fill="#FCD945" transform="translate(0,0)"/>
	<path d="" fill="#6BA545" transform="translate(0,0)"/>
	<path d="" fill="#6BA545" transform="translate(0,0)"/>
	<path d="" fill="#000100" transform="translate(0,0)"/>
	<path d="" fill="#000100" transform="translate(0,0)"/>
	<path d="" fill="#000100" transform="translate(0,0)"/>
	<path d="" fill="#000100" transform="translate(0,0)"/>
	<path d="" fill="#000100" transform="translate(0,0)"/>
	<path d="" fill="#000100" transform="translate(0,0)"/>
	<path d="" fill="#000100" transform="translate(0,0)"/>
	<path d="" fill="#000100" transform="translate(0,0)"/>
	<path d="" fill="#000100" transform="translate(0,0)"/>
	<path d="" fill="#000100" transform="translate(0,0)"/>
	<path d="" fill="#000100" transform="translate(0,0)"/>
	<path d="" fill="#000100" transform="translate(0,0)"/>
	<path d="" fill="#000100" transform="translate(0,0)"/>
	<path d="" fill="#000100" transform="translate(0,0)"/>
	<path d="" fill="#000100" transform="translate(0,0)"/>
	<path d="" fill="#000100" transform="translate(0,0)"/>
	<path d="" fill="#000100" transform="translate(0,0)"/>
	<path d="" fill="#000100" transform="translate(0,0)"/>
	<path d="" fill="#6BA545" transform="translate(0,0)"/>
	<path d="" fill="#000100" transform="translate(0,0)"/>
	<path d="" fill="#000100" transform="translate(0,0)"/>
	<path d="" fill="#000100" transform="translate(0,0)"/>
	<path d="" fill="#000100" transform="translate(0,0)"/>
	<path d="" fill="#000100" transform="translate(0,0)"/>
	<path d="" fill="#000100" transform="translate(0,0)"/>
	<path d="" fill="#6BA545" transform="translate(0,0)"/>
	<path d="" fill="#000100" transform="translate(0,0)"/>
	<path d="" fill="#6BA545" transform="translate(0,0)"/>
	<path d="" fill="#000100" transform="translate(0,0)"/>
	<path d="" fill="#6BA545" transform="translate(0,0)"/>
	<path d="" fill="#6BA545" transform="translate(0,0)"/>
	<path d="" fill="#6BA545" transform="translate(0,0)"/>
	<path d="" fill="#FCD945" transform="translate(0,0)"/>
	<path d="" fill="#000100" transform="translate(0,0)"/>
	<path d="" fill="#FCD945" transform="translate(0,0)"/>
	<path d="" fill="#FCD945" transform="translate(0,0)"/>
	<path d="" fill="#000100" transform="translate(0,0)"/>
	<path d="" fill="#000100" transform="translate(0,0)"/>
	<path d="" fill="#000100" transform="translate(0,0)"/>
	<path d="" fill="#000100" transform="translate(0,0)"/>
	</svg>